<svg fill="none" height="24" viewBox="0 0 24 24" width="24" xmlns="http://www.w3.org/2000/svg"><path clip-rule="evenodd" d="m3.37752 5.08241c-.37752.53787-.37752 2.13666-.37752 5.33429v1.5747c0 5.638 4.23896 8.3741 6.89856 9.5359.72144.3151 1.08214.4727 2.10144.4727s1.38-.1576 2.1014-.4727c2.6596-1.1618 6.8986-3.8979 6.8986-9.5359v-1.5747c0-3.19763 0-4.79642-.3775-5.33429s-1.8808-1.05245-4.8874-2.08162l-.5728-.19607c-1.5673-.53648-2.3509-.80472-3.1623-.80472s-1.595.26824-3.16228.80472l-.57281.19607c-3.00659 1.02917-4.50988 1.54375-4.88739 2.08162zm7.48378 3.28094-.1311.23514c-.144.25828-.216.38742-.3282.47263-.1123.08521-.2521.11684-.53165.1801l-.25454.05759c-.98387.22261-1.4758.33392-1.59284.71029-.11704.3764.21833.7685.88907 1.5529l.17353.2029c.1906.2229.2859.3343.32878.4722.04287.1379.02846.2865-.00036.5839l-.02623.2708c-.10141 1.0464-.15211 1.5697.1543 1.8023s.76704.0205 1.68824-.4036l.2383-.1098c.2618-.1205.3927-.1808.5314-.1808s.2696.0603.5314.1808l.2383.1098c.9212.4241 1.3818.6362 1.6882.4036.3065-.2326.2557-.7559.1543-1.8023l-.0262-.2708c-.0288-.2973-.0432-.446-.0003-.5839.0428-.1379.1381-.2493.3287-.4722l.1736-.2029c.6707-.7844 1.0061-1.1765.889-1.5529-.117-.37637-.6089-.48768-1.5928-.71029l-.2546-.05759c-.2795-.06326-.4193-.09489-.5316-.1801-.1122-.0852-.1842-.21434-.3282-.47262l-.1311-.23515c-.5066-.9089-.76-1.36335-1.1387-1.36335s-.6321.45445-1.1387 1.36335z" fill="#1c274c" fill-rule="evenodd"/></svg>